<svg height="100%" width="100%" id="svg" viewBox="0 0 1440 400" xmlns="http://www.w3.org/2000/svg" class="transition duration-300 ease-in-out delay-150"><path d="M 0,400 C 0,400 0,133 0,133 C 76.74615384615385,140.4153846153846 153.4923076923077,147.83076923076922 226,136 C 298.5076923076923,124.16923076923078 366.776923076923,93.0923076923077 440,107 C 513.223076923077,120.9076923076923 591.4,179.79999999999998 693,179 C 794.6,178.20000000000002 919.623076923077,117.7076923076923 998,108 C 1076.376923076923,98.2923076923077 1108.1076923076923,139.3692307692308 1174,152 C 1239.8923076923077,164.6307692307692 1339.9461538461537,148.8153846153846 1440,133 C 1440,133 1440,400 1440,400 Z" stroke="none" stroke-width="0" fill="#ecf9ff88" class="transition-all duration-300 ease-in-out delay-150"></path><path d="M 0,400 C 0,400 0,266 0,266 C 103.13846153846154,277.57179487179485 206.27692307692308,289.14358974358976 283,295 C 359.7230769230769,300.85641025641024 410.03076923076924,300.9974358974358 490,304 C 569.9692307692308,307.0025641025642 679.6,312.8666666666667 759,303 C 838.4,293.1333333333333 887.5692307692307,267.5358974358974 961,263 C 1034.4307692307693,258.4641025641026 1132.123076923077,274.98974358974357 1216,279 C 1299.876923076923,283.01025641025643 1369.9384615384615,274.50512820512824 1440,266 C 1440,266 1440,400 1440,400 Z" stroke="none" stroke-width="0" fill="#ecf9ffff" class="transition-all duration-300 ease-in-out delay-150"></path></svg>
